<?xml version="1.0" encoding="UTF-8"?>
<svg version="1.1" xmlns="http://www.w3.org/2000/svg" width="100" height="100">
<path d="M0 0 C2.5 0.125 2.5 0.125 3.5 1.125 C3.65655027 2.61138992 3.75066943 4.10449127 3.81640625 5.59765625 C3.85830078 6.49677734 3.90019531 7.39589844 3.94335938 8.32226562 C3.98267578 9.26779297 4.02199219 10.21332031 4.0625 11.1875 C4.10568359 12.13689453 4.14886719 13.08628906 4.19335938 14.06445312 C4.29979276 16.41781353 4.40181008 18.77128354 4.5 21.125 C5.1290625 20.403125 5.758125 19.68125 6.40625 18.9375 C14.28375383 10.39562838 14.28375383 10.39562838 18.5625 9.9375 C24.25399099 10.66777277 27.95693758 16.05268344 31.5 20.125 C32.16 20.785 32.82 21.445 33.5 22.125 C34.12648437 21.48691406 34.75296875 20.84882812 35.3984375 20.19140625 C36.21570312 19.36511719 37.03296875 18.53882812 37.875 17.6875 C38.68710937 16.86378906 39.49921875 16.04007813 40.3359375 15.19140625 C42.75484463 12.88165558 43.86405771 12.24613186 47.125 11.625 C52.1107006 12.36362231 55.35778736 15.24785458 58.5 19.125 C59.35546875 21.73828125 59.35546875 21.73828125 59.5 24.125 C58.84 24.785 58.18 25.445 57.5 26.125 C54.11702587 25.94694873 52.73727939 25.33662756 50.1875 23.0625 C49.630625 22.423125 49.07375 21.78375 48.5 21.125 C44.2257442 22.7080577 42.23468206 25.63068404 39.5 29.125 C39.94472656 29.65609375 40.38945313 30.1871875 40.84765625 30.734375 C41.41355469 31.44078125 41.97945312 32.1471875 42.5625 32.875 C43.13097656 33.57109375 43.69945312 34.2671875 44.28515625 34.984375 C45.5 37.125 45.5 37.125 45.18359375 39.390625 C44.95800781 39.96296875 44.73242188 40.5353125 44.5 41.125 C42.3359375 41.96484375 42.3359375 41.96484375 39.5 42.125 C37.41094804 40.35331139 35.84961582 38.76882757 34.125 36.6875 C33.64748291 36.13779541 33.16996582 35.58809082 32.67797852 35.02172852 C31.71902746 33.91527141 30.76683583 32.80291682 29.82177734 31.68457031 C28.06405784 29.61063012 26.2485051 27.58991452 24.4375 25.5625 C22.58539632 23.45680755 21.06670176 21.47505264 19.5 19.125 C15.61806349 20.41897884 14.51611079 22.30453929 12 25.5 C7.67821782 30.95985149 7.67821782 30.95985149 5.7421875 32.75390625 C4.1314272 34.2607922 4.1314272 34.2607922 4.125 37.6875 C4.24875 38.821875 4.3725 39.95625 4.5 41.125 C8.18027376 43.57851584 10.14702994 43.41770644 14.5390625 43.50390625 C15.22052338 43.52090073 15.90198425 43.5378952 16.60409546 43.55540466 C18.77763659 43.60847824 20.95115881 43.6488187 23.125 43.6875 C25.30588714 43.73139599 27.48662491 43.77804005 29.66732788 43.83030701 C31.64087483 43.87688397 33.6146303 43.91435676 35.58837891 43.95141602 C38.5 44.125 38.5 44.125 39.5 45.125 C39.625 47.625 39.625 47.625 39.5 50.125 C37.54768476 52.07731524 33.84270878 51.33590911 31.17578125 51.36328125 C30.43676071 51.371353 29.69774017 51.37942474 28.93632507 51.38774109 C27.36683509 51.40160056 25.79731474 51.41231435 24.2277832 51.42016602 C21.83941295 51.43730685 19.45245313 51.48116383 17.06445312 51.52539062 C15.53907268 51.53552381 14.01368045 51.54403796 12.48828125 51.55078125 C11.77867752 51.56828934 11.06907379 51.58579742 10.33796692 51.60383606 C5.25682259 51.58187935 2.36167843 50.39494937 -1.5 47.125 C-3.25003749 44.27570394 -3.74936883 42.15403664 -3.74291992 38.83129883 C-3.74753487 37.57528618 -3.74753487 37.57528618 -3.75224304 36.29389954 C-3.74505753 35.398983 -3.73787201 34.50406647 -3.73046875 33.58203125 C-3.73001053 32.65782883 -3.72955231 31.7336264 -3.7290802 30.78141785 C-3.72606357 28.83221143 -3.71819491 26.8830073 -3.70581055 24.93383789 C-3.68750445 21.93822778 -3.68530127 18.94292594 -3.68554688 15.94726562 C-3.68063342 14.05468481 -3.67480586 12.1621061 -3.66796875 10.26953125 C-3.66685593 9.36854202 -3.6657431 8.4675528 -3.66459656 7.53926086 C-3.60788764 0.18039438 -3.60788764 0.18039438 0 0 Z " fill="#FFFFFF" transform="translate(11.5,36.875)"/>
<path d="M0 0 C3.2403811 2.41304976 4.6743756 4.06382984 6 7.875 C6 14.15656851 2.94321814 18.58356091 -1.28515625 22.9296875 C-1.80980469 23.44789062 -2.33445313 23.96609375 -2.875 24.5 C-3.39191406 25.04914063 -3.90882812 25.59828125 -4.44140625 26.1640625 C-5.9921875 27.71875 -5.9921875 27.71875 -9 30 C-11.8828125 29.84375 -11.8828125 29.84375 -14 29 C-14.75 26.8125 -14.75 26.8125 -15 24 C-13.0625 21.1875 -13.0625 21.1875 -11 19 C-11.99 18.01 -12.98 17.02 -14 16 C-18.1621776 17.65277754 -21.05961279 20.65607055 -24.1875 23.75 C-24.73341797 24.26304688 -25.27933594 24.77609375 -25.84179688 25.3046875 C-29.27891427 28.69495447 -30.73704019 30.9812241 -31 36 C-29.948125 35.54625 -28.89625 35.0925 -27.8125 34.625 C-24.89174547 33.37239999 -21.95705332 32.16489979 -19 31 C-18.01 31.99 -17.02 32.98 -16 34 C-17.29266723 37.98572397 -18.47971119 39.75261839 -22 42 C-27.59915131 44.13139899 -33.11132691 45.85958098 -39 44 C-40 43 -40 43 -40.25 39.5625 C-39.9523753 28.37131723 -35.08260502 22.04892417 -27.27661133 14.58374023 C-25.68340374 13.05857869 -24.11885742 11.50800256 -22.55664062 9.95117188 C-9.25281195 -3.10330936 -9.25281195 -3.10330936 0 0 Z M-6 6 C-6.99 6.66 -7.98 7.32 -9 8 C-7.63016497 11.16115776 -7.0109362 11.9927092 -4 14 C-3.34 13.34 -2.68 12.68 -2 12 C-2.32041397 9.39719432 -2.32041397 9.39719432 -3 7 C-3.99 6.67 -4.98 6.34 -6 6 Z " fill="#FFFFFF" transform="translate(94,54)"/>
<path d="M0 0 C0.65418915 -0.00671722 1.3083783 -0.01343445 1.98239136 -0.02035522 C4.13954315 -0.03931309 6.29638343 -0.04325826 8.45361328 -0.04541016 C9.95810065 -0.05183978 11.46258677 -0.05856826 12.96707153 -0.06558228 C16.11935321 -0.07754958 19.27152534 -0.08126368 22.42382812 -0.08007812 C26.45453932 -0.07987499 30.48454496 -0.10717257 34.51508904 -0.14162254 C37.62243854 -0.16390846 40.72961872 -0.16791516 43.83703995 -0.16685867 C45.32254594 -0.16921227 46.80805676 -0.17802225 48.29348373 -0.19352341 C50.37583946 -0.21321881 52.45668006 -0.20733354 54.5390625 -0.1953125 C55.72168671 -0.19816254 56.90431091 -0.20101257 58.12277222 -0.20394897 C62.09279554 0.39525447 64.26642352 1.82878072 67.39892578 4.29052734 C69.68255168 7.45596967 69.64485399 10.27685976 69.62939453 14.11474609 C69.62746094 15.22527344 69.62552734 16.33580078 69.62353516 17.47998047 C69.61128906 18.63433594 69.59904297 19.78869141 69.58642578 20.97802734 C69.58545898 22.72696289 69.58545898 22.72696289 69.58447266 24.51123047 C69.53918943 33.15026369 69.53918943 33.15026369 68.39892578 34.29052734 C65.89892578 34.41552734 65.89892578 34.41552734 63.39892578 34.29052734 C61.72400379 32.61560535 62.23066544 30.52964822 62.18798828 28.23193359 C62.15962891 27.20648438 62.13126953 26.18103516 62.10205078 25.12451172 C62.0500648 22.94759895 62.00576456 20.77048876 61.96923828 18.59326172 C61.93830078 17.56652344 61.90736328 16.53978516 61.87548828 15.48193359 C61.84575928 14.06182983 61.84575928 14.06182983 61.81542969 12.61303711 C61.6779834 11.84660889 61.54053711 11.08018066 61.39892578 10.29052734 C57.91062255 7.96499185 56.53472766 8.03777668 52.41455078 8.03173828 C51.18317383 8.02543396 49.95179687 8.01912964 48.68310547 8.01263428 C47.33837745 8.01621408 45.99365074 8.02031604 44.64892578 8.02490234 C43.27034436 8.02355503 41.89176339 8.02161395 40.51318359 8.019104 C37.62479119 8.01615584 34.73652254 8.02044042 31.84814453 8.02978516 C28.14575348 8.04117963 24.44365239 8.0346185 20.74127197 8.02264023 C17.89483455 8.01541327 15.04846586 8.01771338 12.20202637 8.02289581 C10.83687302 8.02423 9.47171344 8.02259265 8.10656738 8.01793671 C6.19881306 8.01285807 4.29103686 8.02197118 2.38330078 8.03173828 C1.29758789 8.03332947 0.211875 8.03492065 -0.90673828 8.03656006 C-3.82405415 8.09672483 -3.82405415 8.09672483 -6.60107422 10.29052734 C-7.10550518 12.19030636 -7.10550518 12.19030636 -7.16357422 14.29052734 C-7.39363782 18.08309094 -7.39363782 18.08309094 -9.60107422 20.29052734 C-13.1367885 19.75481306 -13.1367885 19.75481306 -14.60107422 18.29052734 C-15.17796915 13.26870425 -15.13148614 9.35135118 -12.85107422 4.79052734 C-8.89357845 0.39330982 -5.83270119 0.03765022 0 0 Z " fill="#FFFFFF" transform="translate(22.60107421875,11.70947265625)"/>
<path d="M0 0 C3.63715985 3.04333783 4.82298645 4.87891416 5.5625 9.5625 C4.91429589 13.52374737 3.81200626 15.18799374 1 18 C-2.22878519 19.6143926 -5.50903682 19.5818272 -9 19 C-12.64184981 16.44295652 -13.77792202 14.77727291 -15 10.5 C-15 6.5736584 -14.42734133 5.03417666 -12 2 C-7.98895926 -0.67402716 -4.71231513 -0.93255974 0 0 Z M-6 7 C-6.33 8.32 -6.66 9.64 -7 11 C-5.68 11 -4.36 11 -3 11 C-3 9.68 -3 8.36 -3 7 C-3.99 7 -4.98 7 -6 7 Z " fill="#FFFFFF" transform="translate(44,25)"/>
</svg>
